/* XPM */
static char *e2af6aeb90e14504aaf75b51ee2d8f1ep98CSOfvSoPkbGrU[] = {
/* columns rows colors chars-per-pixel */
"50 50 129 2 ",
"   c None",
".  c #010101",
"X  c #0D0B0A",
"o  c #110E0C",
"O  c #13110F",
"+  c #151311",
"@  c #191713",
"#  c #1C1916",
"$  c #1E1D19",
"%  c #211C17",
"&  c #211E1A",
"*  c #24221D",
"=  c #28241F",
"-  c #262420",
";  c #2A2622",
":  c #2C2925",
">  c #2F2D28",
",  c #322C25",
"<  c #312E29",
"1  c #35322C",
"2  c #3B342D",
"3  c #393630",
"4  c #3D3933",
"5  c #40362E",
"6  c #42382F",
"7  c #433D35",
"8  c #493E34",
"9  c #433F38",
"0  c #46423B",
"q  c #4B453C",
"w  c #4E483E",
"e  c #53453A",
"r  c #54483D",
"t  c #4B4640",
"y  c #4D4941",
"u  c #524D45",
"i  c #5A4D41",
"p  c #575045",
"a  c #5B5146",
"s  c #565149",
"d  c #5A544C",
"f  c #5F584E",
"g  c #5E5950",
"h  c #604F43",
"j  c #645245",
"k  c #645649",
"l  c #62594E",
"z  c #6A5C4E",
"x  c #635D53",
"c  c #6D5F50",
"v  c #676056",
"b  c #6B6257",
"n  c #656159",
"m  c #6B645A",
"M  c #6F685D",
"N  c #726354",
"B  c #706759",
"V  c #726A5E",
"C  c #7B6C5B",
"Z  c #756D61",
"A  c #7B7163",
"S  c #7E766A",
"D  c #806F5E",
"F  c #827463",
"G  c #837867",
"H  c #8A7866",
"J  c #847A6A",
"K  c #8B7D6B",
"L  c #917E6A",
"P  c #8A7F71",
"I  c #92826E",
"U  c #878075",
"Y  c #8E8271",
"T  c #8A8174",
"R  c #8F8474",
"E  c #8B8171",
"W  c #8E877C",
"Q  c #8F887C",
"!  c #918573",
"~  c #928572",
"^  c #928673",
"/  c #928676",
"(  c #958976",
")  c #968976",
"_  c #9A8A75",
"`  c #948978",
"'  c #968B7A",
"]  c #968A79",
"[  c #9A8D7A",
"{  c #9A8E7B",
"}  c #9D917D",
"|  c #9E917D",
" . c #A28F7B",
".. c #A5937E",
"X. c #A2937E",
"o. c #A19481",
"O. c #A49884",
"+. c #A69984",
"@. c #A79984",
"#. c #A89A85",
"$. c #AF9D87",
"%. c #AC9C85",
"&. c #AF9E88",
"*. c #AC9E89",
"=. c #B19F88",
"-. c #AEA18C",
";. c #B2A48D",
":. c #B4A691",
">. c #BFAF97",
",. c #BDAB93",
"<. c #C2B39A",
"1. c #C6B69D",
"2. c #C7B69D",
"3. c #C1B199",
"4. c #C7B89F",
"5. c #CCBA9F",
"6. c #C9B9A0",
"7. c #CEBDA3",
"8. c #CFBDA3",
"9. c #D0BFA4",
"0. c #D2C0A6",
"q. c #D3C1A7",
"w. c #D5C1A7",
"e. c #D7C3A7",
"r. c #D7C5AA",
"t. c #D9C7AB",
"y. c #D9C6AB",
"u. c #DFCDB0",
"i. c #E0CEB1",
/* pixels */
"                                                                                                    ",
"                                                                                                    ",
"                                                                                                    ",
"                                                                                                    ",
"                                                                                                    ",
"                                                                                                    ",
"                                                                                                    ",
"                                                                                                    ",
"                              & d P                                                                 ",
"                            : 1 t Z T 9 &                                                           ",
"                            2 , - x M A s <                                                         ",
"                          # : < ; l V n S n t $                                                     ",
"                          @ = , : 9 ' x b A n t #                                                   ",
"                          O , : 1 - ! R x n S g r -                                                 ",
"                          o 1 = < > q <.m n m U d l ,                                               ",
"                          X 5 & & < < ! :.0 M n Q y A >                                             ",
"                          . 5 * * - 1 0 q.Z t Z x W 4 / @                                           ",
"                            5 , - # 3 4 F e.0 x x Z Z s { .                                         ",
"                            , 8 $ $ : 4 9 3.O.9 s d S 4 #.m                                         ",
"                            # e $ - - 1 9 x u.B y t M s q 0.*                                       ",
"                            X k - 1 - < 9 u ` 7.y u u u & 2.Y .                                     ",
"                            . e 6 4 4 1 d Z u 1.| t y q @ B i.<                                     ",
"                              % k ; x < g f x V t.Z u 0 ; , w.K                                     ",
"                              . e 7 d f > y 9 m #.6.b u < % Y 4.                                    ",
"                              . % r 6 B 1 1 = 4 u $.+.d 4 $ 8 ..`                                   ",
"                                X 2 , * 0 + = O * 5 $.l 3 ; ; j F                                   ",
"                                  , e 2 & = $ $ @ * r z & : = r                                     ",
"                  @ O * 2 0 q 0 8 , 7 i 8 * * = $ $ ; e 2 # # = + &                                 ",
"          # , a x m B b x l x f i w 9 q a u < = ; * - < & # ; : - * , 4 1                           ",
"      # 1 8 1 2 q g J o.' J A V Z m r = + @ , @ X - - O = 2 ; 1 4 < ; 1 u B J q                     ",
"    + - ; ; 1 q m M V A S J U / { o.O.} F u * * $ * + - 9 3 7 7 2 7 u l u y G ;.] 7                 ",
"  X $ * - ; 4 g x m m m x x d y t u s s p d u & 4 2 @ 1 1 1 < 4 u 0 2 x { K d m &.<.)               ",
"    < - : > > : > 1 7 u n m n a 0 3 < : - * ; 1 O 7 q > : < 4 3 1 q g u x ;.,.J s m | ;.            ",
"    8 a 1 : 1 3 4 y d x b b m m m M m d u 4 3 1 # l F , 1 < - 0 f 0 9 u x x R <.*.M 0 n *.          ",
"      7 j k q 2 4 w d x x b m m m x u 0 4 1 > > @ i L C 2 : 0 2 9 x m f x m g m o.<.' t u X.        ",
"          8 z F Y F B A J m s s s s w 4 1 : - 1 *   z L H a 0 0 u m M m n m m m g Z ;.-.u r B       ",
"              ; q c _ 5.t.9.3.;.$.X.{ { { H N C ,     r C _ ,.J 0 1 q x Z M m b M x u Z } w 4       ",
"                  . o < q u N I %.;.,.,.,. .N ,         = a H ,.7.| l 2 1 0 f v f u s 1 , f : *     ",
"                            . . o % , 7 r                   , r F ,.e.3.{ M w q y 0 4 1 ; % , 2     ",
"                                                                @ 2 r C I $.$.$.] A ( E 7 0 7 &     ",
"                                                                      + & , 6 i b D F K H z ,       ",
"                                                                                                    ",
"                                                                                                    ",
"                                                                                                    ",
"                                                                                                    ",
"                                                                                                    ",
"                                                                                                    ",
"                                                                                                    ",
"                                                                                                    ",
"                                                                                                    "
};
