/* XPM */
static char *result[] = {
/* columns rows colors chars-per-pixel */
"50 50 251 2 ",
"   c #690604",
".  c #77120B",
"X  c #7C5C59",
"o  c #716E74",
"O  c #69605F",
"+  c #9B0904",
"@  c #8A1808",
"#  c #9A1706",
"$  c #890D05",
"%  c #A70D03",
"&  c #B70B09",
"*  c #A91704",
"=  c #BB1B0B",
"-  c #B91803",
";  c #B91414",
":  c #97240A",
">  c #892819",
",  c #A9240A",
"<  c #B92305",
"1  c #A8350C",
"2  c #B9350E",
"3  c #A72614",
"4  c #B92716",
"5  c #A53617",
"6  c #B43A15",
"7  c #96332C",
"8  c #A7272B",
"9  c #B82A24",
"0  c #A93A24",
"q  c #B63527",
"w  c #B42D33",
"e  c #B93636",
"r  c #AC2E34",
"t  c #C61807",
"y  c #C51B15",
"u  c #C91103",
"i  c #C92807",
"p  c #D52A04",
"a  c #DA3304",
"s  c #D9360A",
"d  c #C62319",
"f  c #C93516",
"g  c #D53515",
"h  c #CE330C",
"j  c #E33A08",
"k  c #E33F11",
"l  c #C41E25",
"z  c #C92825",
"x  c #CB3B29",
"c  c #C93337",
"v  c #D33832",
"b  c #BA4718",
"n  c #AC4E15",
"m  c #964932",
"M  c #B84825",
"N  c #AA4836",
"B  c #B84638",
"V  c #B75637",
"C  c #B3522F",
"Z  c #B26232",
"A  c #D7460A",
"S  c #C74719",
"D  c #D84716",
"F  c #D8591A",
"G  c #D7530D",
"H  c #E74908",
"J  c #EC5409",
"K  c #F4550E",
"L  c #E74714",
"P  c #E85714",
"I  c #F25817",
"U  c #F2460F",
"Y  c #F4690C",
"T  c #EA6517",
"R  c #F8781B",
"E  c #F67613",
"W  c #C64828",
"Q  c #D64827",
"!  c #C75528",
"~  c #D85825",
"^  c #C54838",
"/  c #C55739",
"(  c #D75434",
")  c #E24B24",
"_  c #E65624",
"`  c #E95730",
"'  c #D7682A",
"]  c #C86339",
"[  c #D96633",
"{  c #D97537",
"}  c #DF7925",
"|  c #E96827",
" . c #E8792A",
".. c #E76838",
"X. c #F1653A",
"o. c #E77937",
"O. c #F37A34",
"+. c #F67425",
"@. c #B33140",
"#. c #D43C47",
"$. c #C43D42",
"%. c #895855",
"&. c #A5534A",
"*. c #AE5555",
"=. c #B8474B",
"-. c #B86649",
";. c #B8754A",
":. c #A8685A",
">. c #B86859",
",. c #B87857",
"<. c #AE6446",
"1. c #B75764",
"2. c #967371",
"3. c #B46464",
"4. c #B86D72",
"5. c #B97875",
"6. c #AF716B",
"7. c #956761",
"8. c #C65948",
"9. c #D75943",
"0. c #CF4D4B",
"q. c #E25A45",
"w. c #C66648",
"e. c #D66746",
"r. c #D36B51",
"t. c #C87757",
"y. c #DA7957",
"u. c #C67250",
"i. c #EB6745",
"p. c #EB7A45",
"a. c #E97A56",
"s. c #F0734C",
"d. c #C75D64",
"f. c #C8736C",
"g. c #7C817C",
"h. c #F68316",
"j. c #EA862E",
"k. c #F78929",
"l. c #E98739",
"z. c #F5873B",
"x. c #F19438",
"c. c #F8A93C",
"v. c #BB885E",
"b. c #B9836A",
"n. c #B98577",
"m. c #B5977A",
"M. c #888076",
"N. c #CD824C",
"B. c #D58A59",
"V. c #D48D57",
"C. c #ED8447",
"Z. c #F38B43",
"A. c #EA9649",
"S. c #F59348",
"D. c #F48658",
"F. c #E79957",
"G. c #F19456",
"H. c #F8A748",
"J. c #ECA85A",
"K. c #F6A759",
"L. c #FAB858",
"P. c #ECA342",
"I. c #C4866C",
"U. c #D79865",
"Y. c #C88879",
"T. c #C69776",
"R. c #D39579",
"E. c #D28F6D",
"W. c #E98B67",
"Q. c #F48D66",
"!. c #E99666",
"~. c #F6966A",
"^. c #EF9773",
"/. c #F49C76",
"(. c #E58E71",
"). c #DCA26C",
"_. c #D5AA78",
"`. c #E7A76A",
"'. c #F6A767",
"]. c #EBB765",
"[. c #F7B868",
"{. c #E7A776",
"}. c #F6A579",
"|. c #E9B87B",
" X c #F5B678",
".X c #EEC776",
"XX c #F7CB7C",
"oX c #757680",
"OX c #B57F82",
"+X c #7A848B",
"@X c #748E93",
"#X c #7CA5A9",
"$X c #9B9796",
"%X c #968D92",
"&X c #B58A86",
"*X c #B9958A",
"=X c #B69292",
"-X c #B5A892",
";X c #93AFB4",
":X c #A0B6B7",
">X c #B5B8B7",
",X c #B5ACA8",
"<X c #A29EA0",
"1X c #C49588",
"2X c #C39996",
"3X c #C98F88",
"4X c #CCA38A",
"5X c #D2AF91",
"6X c #F6AC85",
"7X c #F6AB86",
"8X c #EAB787",
"9X c #F8B58B",
"0X c #F8B994",
"qX c #ECB190",
"wX c #C5A7A7",
"eX c #CDB7B8",
"rX c #D1B4A8",
"tX c #ECBFA2",
"yX c #B7C2BD",
"uX c #DDC296",
"iX c #F4C688",
"pX c #E6C595",
"aX c #F9C299",
"sX c #F8D697",
"dX c #F1D18A",
"fX c #E3C7A7",
"gX c #F6C9A7",
"hX c #F8D4A8",
"jX c #ECD9BB",
"kX c #FBDCBC",
"lX c #F8D5B4",
"zX c #E6D0B3",
"xX c #F7E5AA",
"cX c #FAEDB5",
"vX c #FAF2BA",
"bX c #DFD4A3",
"nX c #ACBEC4",
"mX c #CABDC1",
"MX c #B7CFD0",
"NX c #D4C9C8",
"BX c #C5D8DA",
"VX c #CDD1CC",
"CX c #FADFC3",
"ZX c #E7DAD4",
"AX c #F9E6C7",
"SX c #FBEDD1",
"DX c #F5F2CB",
"FX c #D8E8E9",
"GX c #EDF1ED",
"HX c #D8E7D9",
"JX c None",
/* pixels */
"JXJXJXJXJXJXJXJXJXJXJXJXJXJXJXJXJXJXJXJXJXJXJXJXJXJXJXJXJXJXJXJXJXJXJXJXJXJXJXJXJXJXJXJXJXJXJXJXJXJX",
"JXJXJXJXJXJXJXJXJXJXJXJXJXJXJXJXJXJXJX2X*XJXJXJXJXJXJXJXJXJXJXJXJXJXJXJXJXJXJXJXJXJXJXJXJXJXJXJXJXJX",
"JXJXJXJXJXJXJXJXJXJXJXJXJXJXJXJXJXb.5XsX|.U.JXJXJXJXJXJXJXJXJXJXJXJXJXJXJXJXJX5XfXzX5Xb.JXJXJXJXJXJX",
"JXJXJXJXJXJXJXJXJXJXJXJXJXJXJXJXn.fXxXsXXX'.-.JXJXJXJXJXJXJXJXJXJXJXJXJXJXJXjXDXDXvXsXV.JXJXJXJXJXJX",
"JXJXJXJXJXJXJXJXJXJXJXJXJXJXJXJX2XhX Xl._ _ n.%XJXJXJXJXJXJXJXJXJXJXJXJXJXJXgXsX XF...S JXJXJXJXJXJX",
"JXJXJXJXJXJXJXJXJXJXJXJXJXJXJX=XeXjXD.) s 8.,X$X5.1X2X=X2XJXJXJXJXJXJXJX=X*X{.z.I s i V JXJXJXJXJXJX",
"JXJXJXJXJXJXJXJXJXJXJXJXJXJXJX&X>XVXzXqX5XnX;Xm.`.|.|.{.).`.|.).).U.N.N.b.VXZXD.L s ( %X+XJXJXJXJXJX",
"JXJXJXJXJXJXJXJXJXJXJXJXJXJXJXb.-XMXBXBX:X%XoX_.[.} ' }  . . .A.XXJ.j.R x.NXFXVXrX*X,X#XoXJXJXJXJXJX",
"JXJXJXJXJXJX&Xn.JXJXJXJXJXJX*XuX].t.&X%X%.%.m.dXl.9 *.Y.Y.>.N ).].] ] ] ! 5.BXMX;X@X@XoXJXJXJXJXJXJX",
"JXJXJXJX_.pXpX_.t.JXJXJX5.4XpXK.P h d 4 q E..Xl.i r wXFXNX&Xm.J.F *.mXeX5.,._.-XoXO X 7.JXJXJXJXJXJX",
"JXJXJXpXxXvXvXxX_.:.6.m.tX.Xl.b * t t x ^..X{ , & e wXNX1X4X.X' = 3.VX,Xm.].x.9.@.8 q JXJXJXJXJXJXJX",
"JXJXn.pXvXDXxX XS.m.5XdX.X .Z 5.8 - e.iX[.o.:.r & $.OX&X5XcXxXU.^ >.*XT.].H.| 9 & u e JXJXJXJXJXJXJX",
"JXJXJXU.~.G.X.g P tXHXJ.G < 4.,Xq e.iXK.D c =X*.; c >.uXDXDXcXsXy.&.m.XXH...z & & & =.JXJXJXJXJXJXJX",
"JXJXJX5XO.j p d e.VXMX:.3 4 N -.V.].j.A u l 3X*.= e.5XxXsX XK.z.e.T..XH.~ g y % & y 3.JXJXJXJXJXJXJX",
"JXJX&XVXlX^.y.f.<X:X$Xm.|.^.B.`.dXF.b f d d 4.&./ 8XZX X+.L j j B.bXK.~ 3 i t & & z 2XJXJXJXJXJXJXJX",
"JXJXJX,XFXGXFXBX;X+X7.l.L.XXdXxXcXhXuX8X}.U.T.U.`.AXGX XI p p s 8XVXr.4 # i y & u 0.eXJXJXJXJXJXJXJX",
"JXJXJX2.<XVXBXMX$X%.W J Y E k.k.x.H.H.L.L.L.L.K.K.zXGXSX^.i.s.3XVX;X/ - # i z u y d.JXJXJXJXJXJXJXJX",
"JXJXJXJXJX:.d.w.B f W 4.W j A M b A J K J K Y Y I 3XFXGXGXZXZX>X@Xg.S u # i d ; y 3.JXJXJXJXJXJXJXJX",
"JXJXJXJXJX3.S h i p / rXt.P F b.6.h J A t u H P p 0.,XMXMXMX;XoXO m s - # i d ; d 1.JXJXJXJXJXJXJXJX",
"JXJXJXJXJXJXw.G a a / eXT.J.V.2X=X!  .S - y  .o.t z 3.-X-X*X2.-.C 6 s = 3 h z ; 9 5.JXJXJXJXJXJXJXJX",
"JXJXJXJXJXJXI.j.H a ! wX4X.XU.2X2Xw.A.b - f A.l.= l 4.T..Xc.T P ! 5 a = 8 g z y w 2XJXJXJXJXJXJXJXJX",
"JXJXJXJXJXJXJX{ Y j S 1XwX8XV.n.wXt.J.b % y !.A.= l 4.=XdXc.E J ^ 5 a 9 N d #.l #.eXJXJXJXJXJXJXJXJX",
"JXJXJXJXJXJXJXu.h.J S JXJXF.{ I.wXu.G.b % d !.Z.= y f.&X].L.h.J ^ 0 p w N g #.z d.NXJXJXJXJXJXJXJXJX",
"JXJXJXJXJXJXJXm.c.Y D JXJX! H -.wXB F h , t i. .t ; 3X-XE.L.h.K ^ 0 p w N g #.v 1.JXJXJXJXJXJXJXJXJX",
"JXJXJXJXJXJXJXJXJ.k.' ;.:.M D ! n.B g f :.=.( L t ; 4.2X3X'.R K B 5 p w e f #.#.3.eXJXJXJXJXJXJXJXJX",
"JXJXJXJXJXJXJXJXt.S. X|.).|.}.8X4XR.!.W.uX,X_.C.( / u.u.R.XX+.U 0.b s e q g #.d.2.&XJXJXJXJXJXJXJXJX",
"JXJXJXJXJXJXJXJXu.o.x.x.l.G.K.[.0XiXiXiXpX.X8X X X'. X X/.[.R U i.X.s q...g 1.%XOX=.JXJXJXJXJXJXJXJX",
"JXJXJXJXJXJXJXJXY.O.Y S V 6 I ~.hXhXhXgX9X X[.K.C.I +.O.X.K.R k q.` k 0.e.g $.4.e.W JXJXJXJXJXJXJXJX",
"JXJXJXJXJXJXJXJXJXF.k.[ JXV | O.Z.S.S.S.S.S.j.| h - a i f F.k.k w 2 k @.0 p #.s.) 4 JXJXJXJXJXJXJXJX",
"JXJXJXJXJXJXJXJXJX!.k.' JXt.k.~ ) s i i p i p i + 1 H * $ { k.U w 2 k @.0 s 0.q.g 4 JXJXJXJXJXJXJXJX",
"JXJXJXJXJXJXJXJXJXt.x.F >.I.A.[ ( a + , i $ < ,   n T :   W O.I r 6 j $.( _ q.f < 9 JXJXJXJXJXJXJXJX",
"JXJXJXJXJXJXJXJXJX,.l.G &.E.K.S 2 P , b G $ 1 A . Z j.:   M O.I 7 1 s v q.X.Q < < w JXJXJXJXJXJXJXJX",
"JXJXJXJXJXJXJXJXJX,.C.F -.8XJ.: > x.6 V | @ b G > Z x.>   &.z.I 7 5 p x i.` d < * JXJXJXJXJXJXJXJXJX",
"JXJXJXJXJXJXJXJXJXv.l.T B.`.A.> m A.6 -.{ @ C N.X v.{ @   V z._ 7 3 a z ` x - * * JXJXJXJXJXJXJXJXJX",
"JXJXJXJXJXJXJXJXJXJXG.l.m.;. .# 5 j.5 V { @ Z b.X <.F 5 . N Z._ 8 6 L Q Q < * * % JXJXJXJXJXJXJXJXJX",
"JXJXJXJXJXJXJXJXJXJXJXrX%XV F 3 2 P , M F @ C ,.X V F 6 $ 0 o.` ^ ( X.` 2 * * JXJXJXJXJXJXJXJXJXJXJX",
"JXJXJXJXJXJXJXJXJXtXfX2Xt.[ _ ( _ H 6 S A 3 ! D > Z S # . 7 { ) q.X.X.W * % JXJXJXJXJXJXJXJXJXJXJXJX",
"JXJXJXJXJXJXJXJXfXCXCXgXqX7X/.Q.D.O.+.| T | | _ ! ~ f = 7 *XF.( f.r.( * % % JXJXJXJXJXJXJXJXJXJXJXJX",
"JXJXJXJXJXJXJXJX3XlXAXCXgXCXSXCXlX9X[.'.~.G.Z.s.i._ D ) w.MXpX3X$X>.6 % + JXJXJXJXJXJXJXJXJXJXJXJXJX",
"JXJXJXJXJXJXJXJX5.tXCXCXgXkXSXSXSXSXAXCXcXkXgX0X7XQ.a.s.e.1X>X$XOXr # + + JXJXJXJXJXJXJXJXJXJXJXJXJX",
"JXJXJXJXJXJXJXJXJX4XgXlXgXgXkXkXlXkXkXCXAXAXAXSXAXlXaXW.a.W.R.E.8.3 + + JXJXJXJXJXJXJXJXJXJXJXJXJXJX",
"JXJXJXJXJXJXJXJXJXf.7XaXqX6X7X9X0X0X0X0XaX0XgXlXhXlX0Xa.Q.7X7X7X8.% + JXJXJXJXJXJXJXJXJXJXJXJXJXJXJX",
"JXJXJXJXJXJXJXJXJX5.(./.^.Q.^./.6X6X7X9X0X9X7X7X6X6X^.e.D.6X7X9X8.% + JXJXJXJXJXJXJXJXJXJXJXJXJXJXJX",
"JXJXJXJXJXJXJXJXJX2Xt.Q.a.w.u.W./.}.6X7X9X9X9X7X}./.^.W.Q./.}.7Xd.+ JXJXJXJXJXJXJXJXJXJXJXJXJXJXJXJX",
"JXJXJXJXJXJXJXJXJXJX>.a.Q.q . 7 &.>.-.w.r.a.Q.^./.}.7X7XQ.Q.~.}.8.+ JXJXJXJXJXJXJXJXJXJXJXJXJXJXJXJX",
"JXJXJXJXJXJXJXJXJXJXY.r.s.B . JXJXJXJXJXJXJXJXJXw.w.r.y.D.s.D.~.8.+ JXJXJXJXJXJXJXJXJXJXJXJXJXJXJXJX",
"JXJXJXJXJXJXJXJXJXJXJX&X>.&.JXJXJXJXJXJXJXJXJXJXJXJXJXJXJXs.s.D.B + JXJXJXJXJXJXJXJXJXJXJXJXJXJXJXJX",
"JXJXJXJXJXJXJXJXJXJXJXJXJXJXJXJXJXJXJXJXJXJXJXJXJXJXJXJXJXX.X.s.^ JXJXJXJXJXJXJXJXJXJXJXJXJXJXJXJXJX",
"JXJXJXJXJXJXJXJXJXJXJXJXJXJXJXJXJXJXJXJXJXJXJXJXJXJXJXJXJXJXX.i.x JXJXJXJXJXJXJXJXJXJXJXJXJXJXJXJXJX",
"JXJXJXJXJXJXJXJXJXJXJXJXJXJXJXJXJXJXJXJXJXJXJXJXJXJXJXJXJXJXJXJXJXJXJXJXJXJXJXJXJXJXJXJXJXJXJXJXJXJX"
};
