/* XPM */
static char *result[] = {
/* columns rows colors chars-per-pixel */
"50 50 216 2 ",
"   c #010101",
".  c #0A0403",
"X  c #0E0905",
"o  c #040408",
"O  c #0B0B0B",
"+  c #1C0D03",
"@  c #130A08",
"#  c #0F100F",
"$  c #15110C",
"%  c #110E11",
"&  c #141212",
"*  c #1E1E1C",
"=  c #181617",
"-  c #040F19",
";  c #200F05",
":  c #340B00",
">  c #2D1302",
",  c #261002",
"<  c #341603",
"1  c #391B07",
"2  c #231819",
"3  c #20201F",
"4  c #3D2210",
"5  c #262524",
"6  c #2C2D2B",
"7  c #282825",
"8  c #32322E",
"9  c #353533",
"0  c #3D3D3A",
"q  c #393038",
"w  c #33282D",
"e  c #4B1F02",
"r  c #451A01",
"t  c #4C2103",
"y  c #4A260B",
"u  c #542302",
"i  c #5D2602",
"p  c #4E2A17",
"a  c #672B03",
"s  c #762F01",
"d  c #7B3101",
"f  c #6C300A",
"g  c #443232",
"h  c #4C3A3A",
"j  c #47363B",
"k  c #41413B",
"l  c #413642",
"z  c #4A4A44",
"x  c #494843",
"c  c #584845",
"v  c #53524B",
"b  c #5C554E",
"n  c #594A59",
"m  c #545451",
"M  c #5A5B53",
"N  c #5A5959",
"B  c #6B4B4D",
"V  c #644C4B",
"C  c #635552",
"Z  c #655656",
"A  c #785355",
"S  c #745F4B",
"D  c #67635D",
"F  c #70645F",
"G  c #6C5B6A",
"H  c #75546B",
"J  c #646463",
"K  c #6C6C64",
"L  c #666A6C",
"P  c #746A66",
"I  c #75746C",
"U  c #7A776A",
"Y  c #796679",
"T  c #7D7C73",
"R  c #7C7B7A",
"E  c #8A3700",
"W  c #8D3901",
"Q  c #843502",
"!  c #953C01",
"~  c #9D3F01",
"^  c #A53E00",
"/  c #9B4A17",
"(  c #8E4519",
")  c #A14101",
"_  c #AC4500",
"`  c #AE4802",
"'  c #B54A01",
"]  c #BC4C01",
"[  c #B64700",
"{  c #A74F19",
"}  c #A55218",
"|  c #B55412",
" . c #9A5B2E",
".. c #A35325",
"X. c #A25A3A",
"o. c #91603B",
"O. c #C44D00",
"+. c #CE4F00",
"@. c #D04F00",
"#. c #CC5100",
"$. c #D35400",
"%. c #DA5600",
"&. c #DE5800",
"*. c #E55A00",
"=. c #EC5D00",
"-. c #E75700",
";. c #F75D00",
":. c #FD5F00",
">. c #F46100",
",. c #FE6500",
"<. c #FF6900",
"1. c #8A5A51",
"2. c #835E62",
"3. c #856363",
"4. c #8D6567",
"5. c #966B6B",
"6. c #83687A",
"7. c #9E6F71",
"8. c #817E70",
"9. c #AA7677",
"0. c #A46F6C",
"q. c #808076",
"w. c #83837A",
"e. c #89897E",
"r. c #9D907D",
"t. c #A39078",
"y. c #982387",
"u. c #886F84",
"i. c #987A93",
"p. c #8C8C82",
"a. c #8C8C8B",
"s. c #929185",
"d. c #93938A",
"f. c #9A9A8D",
"g. c #9A988C",
"h. c #9D9D91",
"j. c #969696",
"k. c #8F9186",
"l. c #A89C88",
"z. c #B39084",
"x. c #9EA499",
"c. c #A2A296",
"v. c #A7A79A",
"b. c #A9AA9C",
"n. c #ACA996",
"m. c #B2AF9A",
"M. c #B9B29D",
"N. c #9982A3",
"B. c #A687A5",
"V. c #AD8EB0",
"C. c #B695BA",
"Z. c #AEAEA1",
"A. c #AEA3A1",
"S. c #B2B3A4",
"D. c #BABAAB",
"F. c #B9B8A7",
"G. c #B5B5B4",
"H. c #BAB9B9",
"J. c #C88C8D",
"K. c #D99899",
"L. c #F7ACAC",
"P. c #FEB3B3",
"I. c #FFB9BA",
"U. c #EBA6A6",
"Y. c #C3C4B3",
"T. c #CBC7B1",
"R. c #C5C8B7",
"E. c #CDCDBD",
"W. c #C4CBBF",
"Q. c #D2CCB7",
"!. c #D2D1BE",
"~. c #DED8BF",
"^. c #D8D3BA",
"/. c #C5C0A9",
"(. c #CEACDB",
"). c #D2AEDA",
"_. c #CDA4C8",
"`. c #D8B6E9",
"'. c #E9BAEB",
"]. c #D5D5C2",
"[. c #D9D9C6",
"{. c #DDDDCA",
"}. c #D3D9C1",
"|. c #DFDFDF",
" X c #CFD2C2",
".X c #FFC5C5",
"XX c #E2DCC2",
"oX c #DFE1CD",
"OX c #D8E7DD",
"+X c #E6E1C6",
"@X c #E2E2CC",
"#X c #EAE5CA",
"$X c #EEE8CD",
"%X c #EAEAD5",
"&X c #EDEED8",
"*X c #E5E6D2",
"=X c #F2EED3",
"-X c #F4F3DC",
";X c #F7F1D5",
":X c #F0EED5",
">X c #EDC0EE",
",X c #FCCBFD",
"<X c #F5C8FB",
"1X c #FFD3FF",
"2X c #FFDAFF",
"3X c #EAC2F8",
"4X c #E5E5E5",
"5X c #F6F6E1",
"6X c #FEFDE6",
"7X c #FFFFEB",
"8X c #F6F8E1",
"9X c #F6F6F6",
"0X c #FFFFF2",
"qX c #FFFFFD",
"wX c #EDF4E4",
"eX c None",
/* pixels */
"eXeXeXeXeXeXeXeXeXeXeXeXeXeXeXeXeXeXeXeXeXeXeXeXeXeXeXeXeXeXeXeXeXeXeXeXeXeXeXeXeXeXeXeXeXeXeXeXeXeX",
"eXeXeXeXeXeXeXeXeXeXeXeX+ t i u < o eXeXeXeXeXeXeXeXeXeXeXeXeXeXeXeXeXeXeXeXeXeXeXeXeXeXeXeXeXeXeXeX",
"eXeXeXeXeXeXeXeXeXeXX a ' +.#.#.#.) u X eXeXeXeXeXeXeXeXeXeXeXeXeXeXeXeXeXeXeXeXeXeXeXeXeXeXeXeXeXeX",
"eXeXeXeXeXeXeXeXeXX E *.*.&.&.%.$.$.%.~ , eXeXeXeXeXeXeXeXeXeXeXeXeXeXeXeXeXeXeXeXeXeXeXeXeXeXeXeXeX",
"eXeXeXeXeXeXeXeXeXQ <.,.,.,.,.,.>.&.#.%.) + eXeXeXeXeXeXeXeXeXeXeXeXeXeX+ < u 1 + eXeXeXeXeXeXeXeXeX",
"eXeXeXeXeXeXeXeXy ,.,.,.,.<.,.,.,.,.;.$.%.i eXeXeXeXeXeXeXeXeXeXeXeXX i ` =.,.>.$.W > eXeXeXeXeXeXeX",
"eXeXeXeXeXeXeXeX) <.,.,.=.-.:.<.,.,.,.>.&.) . eXeXeXo eXeXeXeXeXeXX Q *.,.,.,.,.<.<.*.u   eXeXeXeXeX",
"eXeXeXeXeXeXeXeX#.,.] X.0.7.1.' ,.,.,.,.;.$., + 1 + + 1 t   eXeX  s &.*.,.,.,.,.,.,.<.<.a eXeXeXeXeX",
"eXeXeXeXeXeXeX4 %.{ V.3X,X1X<XV.{ <.,.,.<.) r W u e ! E u e > o r #.$.>.,.,.,.,.,.,.,.<.,.t eXeXeXeX",
"eXeXeXeXeXeXeXy ( (.2X,X,X,X,X1X6.] <.:.<.) &.%.#.*.=.] O.#.<   d $.#.,.,.,.,.>.,.,.,.,.<.#.X eXeXeX",
"eXeXeXeXeXeXeX  6.2X,X,X,X,X1XB.- r | o.=.<.,.<.<.,.,.>.=.$.[ W ~ $.#.>.,.,.<.<.,.,.<.<.,.<.a eXeXeX",
"eXeXeXeXeXeXeXeXi.2X,X,X,X<X2X6.* D.E.OX..,.,.>.,.,.,.,.,.,.=.%.$.#.#.%.,.<.-.` {  ./ ` %.<.` eXeXeX",
"eXeXeXeXeXeXeXeXn 1X,X,X,X1X<XG I 7X7X0Xl.$.<.,.,.,.,.,.,.,.,.>.$.#.#.#.=.#.1.C.(.`.(.C.2.] $.# eXeX",
"eXeXeXeXeXeXeXeX  u.2X,X1X'.Y S.7X6X6X6XwXo.;.<.,.,.,.,.,.,.,.,.,.%.#.$.O.p u._.,X1X1X1X,X6._ 1 eXeX",
"eXeXeXeXeXeXeXeXeXo G >X'.L ].0X6X7X6X8X7XW./ ,.,.,.,.,.,.,.,.,.,.,.$.#.O.) : j ,X,X,X<X1X).a < eXeX",
"eXeXeXeXeXeXeXeXeXeXeXw Z ].0X7X7X-X7X0X6X0Xb.' <.,.,.,.,.,.,.,.,.,.>.#.$.O.1 N.1X,X,X,X1X).4 eXeXeX",
"eXeXeXeXeXeXeXeXeXeXeXeXM 0X7XY.M 0 0 s.6X6X0Xl.] ,.,.,.,.,.,.,.,.,.,.*.#.#.! i.2X,X,X,X1Xi.  eXeXeX",
"eXeXeXeXeXeXeXeXeXeXeXeXI 0XZ.o     & o m 6X6X0Xr.O.<.,.,.,.,.,.<.<.,.,.$.#.$.f (.1X<X,X1Xl   eXeXeX",
"eXeXeXeXeXeXeXeXeXeXeXeXv.5X3   o a.qX4X6 f.0X6X7Xt.+.,.,.,.,.<.*.' ] *.>.O.%.^ i.2X,X2XB.% eXeXeXeX",
"eXeXeXeXeXeXeXeXeXeXeX9 6Xp.  6 J qXqXqXG.j 6X6X6X0Xl.+.<.,.<.W .     + ) %.$.] 4.<X_.n # eXeXeXeXeX",
"eXeXeXeXeXeXeXeXeXeXeXs.qX6 0 h.a.qX9XqXG.# &X7X6X6X7Xl.O.<.~   N R 0     d %.O.p q O eXeXeXeXeXeXeX",
"eXeXeXeXeXeXeXeXeXeXx 6X6X5 o & 9 4XqX|.6 O &X7X6X6X6X7XM. .. L qXqXqXN   . _ %.u eXeXeXeXeXeXeXeXeX",
"eXeXeXeXeXeXeXeXeX= R.qX7XM   .   * m *   v 7X6X6X6X6X6XqXx.  H.qX9XqXH.    i &.a eXeXeXeXeXeXeXeXeX",
"eXeXeXeXeXeXeXeXeX7 v.].0X[.*           *  X7X6X7X6X6X6X0Xg.  G.qX9XqXG.    > $.s eXeXeXeXeXeXeXeXeX",
"eXeXeXeXeXeXeXeXO v.S.q.h.%X%XI k 9 0 K {.7X6X&X8X7X6X6X7XZ.  J qXqX9Xm H.N + @.Q eXeXeXeXeXeXeXeXeX",
"eXeXeXeXeXeXeXeXz 7X0X0X[.p.E.qX6X8X6X0X7X6X6XI 7 g.7X6X7XXX=   L a.9 o R = : =.W eXeXeXeXeXeXeXeXeX",
"eXeXeXeXeXeXeXeXU qX7X7X0X6X].8X6X7X6X7X7X6X6X%Xb. X7X6X6X0Xw.              S } d eXeXeXeXeXeXeXeXeX",
"eXeXeXeXeXeXeXeXq.oXg.p.R S.7X7X6X6X7X{.R.7X6X7X0X7X6X6X6X7X7XK           p.-XR.U O eXeXeXeXeXeXeXeX",
"eXeXeXeXeXeXeXeX9 s.D.[.!. X8X7X6X7X-Xw.].6X6X6X6X6X6X7X6X6X7X7XS.v * 6 p.%X^.;Xn.# eXeXeXeXeXeXeXeX",
"eXeXeXeXeXeXeXeX5 -X0X7X7X7X6X6X6X7X!.D.qX6X7X7X7X6X-X%X6X6X6X6X7XG.d.h.c.s.8.n.l.O eXeXeXeXeXeXeXeX",
"eXeXeXeXeXeXeXeX  x.0X8X6X6X7X7X7X6X*Xw.%X7X%XT {.qX[.c.7X6X6X6X-XXX8X0X7X6X^.^.s.eXeXeXeXeXeXeXeXeX",
"eXeXeXeXeXeXeXeXeXl 5X6X6X7X%XR.&X7X7XY.T f.J y.H h.d.].7X6X6X6X7X*Xc.Z.[.:X+X$X8.eXeXeXeXeXeXeXeXeX",
"eXeXeXeXeXeXeXeXeXeXe.0X7XY.C 3.F {.7X7X5X&XA.y.H ].%X7X6X6X6X7X7X5X[. XE.n./.XXb eXeXeXeXeXeXeXeXeX",
"eXeXeXeXeXeXeXeXeXeXo d.6Xb K..XA Z.0X6X7X7X-Xp.].qX7X6X6X6X7X8X%X6X0X7X6XQ.T.m.# eXeXeXeXeXeXeXeXeX",
"eXeXeXeXeXeXeXeXeXeXeXg Z.V P.P.B S.0X6X6X6X7X7X7X6X6X6X6X7XD.F P P oX7X$X#XXXk eXeXeXeXeXeXeXeXeXeX",
"eXeXeXeXeXeXeXeXeXeXeX3. Xb L.P.c R.7X6X6X6X6X6X6X6X6X6X7X5Xx 0.I.9.T 6XXXQ.z eXeXeXeXeXeXeXeXeXeXeX",
"eXeXeXeXeXeXeXeXeXeX2 2.%Xc.B B s.0X6X6X6X6X6X6X6X6X6X6X0XF.V P.P.L.P +X$Xl.2 eXeXeXeXeXeXeXeXeXeXeX",
"eXeXeXeXeXeXeXeXeXeX2 g.7X6XY.E.7X6X6X6X6X6X7X6X6X7X6X6X7X8XD 2..XJ.P 8X+XF.h eXeXeXeXeXeXeXeXeXeXeX",
"eXeXeXeXeXeXeXeXeXeXp.0X6X6X0X0X6X6X7X6X6X7X6X6X6X6X6X6X6X7X8XC A C R.7X$XT.h eXeXeXeXeXeXeXeXeXeXeX",
"eXeXeXeXeXeXeXeXeX7 [.7X6X6X6X6X6X6X6X6X6X6X7X6X6X7X6X6X6X6X7X%XD.*X7X7X=X#XU o eXeXeXeXeXeXeXeXeXeX",
"eXeXeXeXeXeXeXeXeXv 6X6X6X6X7X6X6X6X6X6X7X6X7X6X6X6X6X6X6X6X6X7X0X7X6X6X;XXX~.6 g & eXeXeXeXeXeXeXeX",
"eXeXeXeXeXeXeXeXeXI 7X6X6X6X6X6X6X6X6X6X6X6X6X6X6X6X6X6X6X6X6X6X6X6X6X6X-X~.#Xz J.9.  eXeXeXeXeXeXeX",
"eXeXeXeXeXeXeXeXeXI 0X6X6X6X6X6X6X6X6X6X6X6X6X6X6X6X6X6X6X6X6X6X6X6X6X7X:X~.$XM B 5.O eXeXeXeXeXeXeX",
"eXeXeXeXeXeXeXeXeXx 7X6X6X8X6X6X6X6X7X7X7X0X7X0X0X0X0X0X0X7X6X6X6X6X6X6X+X~.+Xh eXeXeXeXeXeXeXeXeXeX",
"eXeXeXeXeXeXeXeXeX& d.0X0X0X0X0X7X7X8X*X{.!.R.D.D.F.D.Y.E.{.-X0X0X7X6X#XXX=XM.& eXeXeXeXeXeXeXeXeXeX",
"eXeXeXeXeXeXeXeXh K.B U f.p.T K D m x 0 6 3 & O o o O O * 8 k K c.*X=X=XXXM.5 eXeXeXeXeXeXeXeXeXeXeX",
"eXeXeXeXeXeXeXeXc J.U.9.=   eXeXeXeXeXeXeXeXeXeXeXeXeXeXeXeXeXeX  * Z I x g 5.g eXeXeXeXeXeXeXeXeXeX",
"eXeXeXeXeXeXeXeX2 O g w eXeXeXeXeXeXeXeXeXeXeXeXeXeXeXeXeXeXeXeXeXeXeXeX2 z.K.4.X eXeXeXeXeXeXeXeXeX",
"eXeXeXeXeXeXeXeXeXeXeXeXeXeXeXeXeXeXeXeXeXeXeXeXeXeXeXeXeXeXeXeXeXeXeXeXeX# $ & eXeXeXeXeXeXeXeXeXeX",
"eXeXeXeXeXeXeXeXeXeXeXeXeXeXeXeXeXeXeXeXeXeXeXeXeXeXeXeXeXeXeXeXeXeXeXeXeXeXeXeXeXeXeXeXeXeXeXeXeXeX"
};
