/* XPM */
static char *_2bad4424c464a45a58c6f4999c2808bvQ8GMgsWL6bIFmOm[] = {
/* columns rows colors chars-per-pixel */
"50 50 130 2 ",
"   c #130C06",
".  c #1E130C",
"X  c #1F1711",
"o  c #241206",
"O  c #2C1506",
"+  c #24140B",
"@  c #2B1609",
"#  c #2C190C",
"$  c #311706",
"%  c #3A1C07",
"&  c #331B0B",
"*  c #3B1D09",
"=  c #2D1B10",
"-  c #331E10",
";  c #3E200D",
":  c #362211",
">  c #3F2412",
",  c #411F09",
"<  c #44220B",
"1  c #4C250C",
"2  c #4F280F",
"3  c #51270B",
"4  c #54290D",
"5  c #5C2C0D",
"6  c #452611",
"7  c #4A2711",
"8  c #4D2912",
"9  c #4C2E18",
"0  c #532C12",
"q  c #5A2E12",
"w  c #502E18",
"e  c #553116",
"r  c #5D3114",
"t  c #543018",
"y  c #5C3319",
"u  c #5C3A1B",
"i  c #612F0E",
"p  c #64310E",
"a  c #6A330F",
"s  c #602F10",
"d  c #643313",
"f  c #6D3511",
"g  c #653A17",
"h  c #6C3916",
"j  c #633619",
"k  c #66381A",
"l  c #6B3A1A",
"z  c #713711",
"x  c #743A13",
"c  c #7A3D15",
"v  c #733E1B",
"b  c #7B3F18",
"n  c #7D4117",
"m  c #75411D",
"M  c #7C421B",
"N  c #724120",
"B  c #7C4520",
"V  c #7E4A21",
"C  c #83441B",
"Z  c #88471D",
"A  c #854A1E",
"S  c #8A491E",
"D  c #8E501E",
"F  c #92501F",
"G  c #814721",
"H  c #854B22",
"J  c #8D4C22",
"K  c #914E22",
"L  c #845022",
"P  c #8C5324",
"I  c #955224",
"U  c #995325",
"Y  c #995426",
"T  c #9A5426",
"R  c #9A5526",
"E  c #9A5427",
"W  c #9B5527",
"Q  c #945927",
"!  c #975A27",
"~  c #9B5A26",
"^  c #9C5B24",
"/  c #985C27",
"(  c #975528",
")  c #9B5628",
"_  c #9D5628",
"`  c #9D5728",
"'  c #9C5629",
"]  c #9E5929",
"[  c #9C5A29",
"{  c #9F5C28",
"}  c #A15C27",
"|  c #A05829",
" . c #A35929",
".. c #A0582A",
"X. c #A0592A",
"o. c #A25B2A",
"O. c #A45A29",
"+. c #A15D28",
"@. c #A25E28",
"#. c #A35F2A",
"$. c #A55F2B",
"%. c #A75F2B",
"&. c #A95E2B",
"*. c #9B6028",
"=. c #A46327",
"-. c #A3602B",
";. c #A7612B",
":. c #A66428",
">. c #A9622B",
",. c #A9632D",
"<. c #A8652D",
"1. c #AB642C",
"2. c #AB672C",
"3. c #AE662C",
"4. c #AD682D",
"5. c #AF6A2E",
"6. c #B06B2E",
"7. c #B16D2E",
"8. c #B26C2E",
"9. c #B5712F",
"0. c #B5722F",
"q. c #B8722F",
"w. c #B66F30",
"e. c #B96E31",
"r. c #B67230",
"t. c #BA7330",
"y. c #B87430",
"u. c #BA7431",
"i. c #BC7732",
"p. c #C17932",
/* pixels */
"/ < ] :.f C ~ m P ,.` ` ..C C P 9 %.w.c z Z J o.I 6 J 1.9.8.Z M K v 6 u ! +.M Z ..K C z z ^ 1.l h Z ",
"z 0 ( 5.=.2.) m >.H M S C f x r I ` M f f a C 5.&.G 4 S 6.} ] I 1 4 ] >.] z f K U _ >.%.C f M C v 1 ",
"* d Y ] %.` ] l z f f f a x 5 B I f a f a z o.9.5.o.0 a J U K d i K ..W ` K H o.` ) ;.9.6.J M S %.0 ",
"& x x C I S c d 1 z a 5 1 4 % j K Z K Z C b +.q.8.o.j 4 x x s 1 z S K K ( o...U H c c U %.o.+.( c % ",
"d 4 z a x f a f % 1 r B H B J k H o.Y _ o...O.>.+.{ S + $ 1 & 1 x C U K c M C z f n z z C G n x 1 q ",
"I 0 i x f f x x % j ` ,.t.,.o.J 5 U _ _ I S c x x S x * H 1.H * < x C S I a a C K ..x f z z f < 5 C ",
"C A 0 a x x f < ; +.Y >.y.1.Y Y 0 d C C z f z i 1 4 + & Y i.S 5 3 < $ 5 C z a K O.n z x i 5 ; # a a ",
"J } ( 1 i 1 0 q 8 ( Y 1.8.1._ } b < 4 i f d , 1 c * 6 1 x 6.+.S K J p 5 , i a S S i f , k P 2./ 4 x ",
"Y 2.9.U 8 - ~ c q I ` ` I C C C x 5 % 1 < < d 3.] y m H c U +.` o.U C q 1 4 1 1 0 r ; : w.C U t.j % ",
"c K +.o.I j 2.2.M g ` K x p a p , 0 ! w.^ ,.,.1.j M l B o.) ` K C d < d +.6.P < l U J j +.C I S 5 . ",
"f f b z S k J e.I , f x z x x 1 4 F 1.O.` ` o.G j y.M 1 K ..` M 5 % s ) 6.6._ h I ] I 1 C ` C f 4 H ",
"f f f f x 0 d J c 5 + 3 p p a & 1 x z H J C d 0 <.y.Q 1 z n n i @ 0 p x n f 3 < c M c 5 , z x 5 5 C ",
"4 z f z x $ 4 x x 5 , 5 1 , < % & 5 a f z i , x %.5.O.l 4 f 4 6 H e.H * 5 r M q 5 z z 5 & * 1 % x x ",
"1 5 x f 4 $ , 5 5 , C I S S Y M @ j 5 5 i O i z M K Z C 5 , 4 0 3 v m 1 P 6.i.2.d i 4 v o.H N l 1 f ",
"* $ 3 < 4 c , $ i K 8.5.2.6.,.h h 9.o.j j j r 5 z z a z x < i x z s 5 ^ t.2.=.I l < H &.6.t.i.e.~ 0 ",
"h b c M I I 4 f } q.;.U ^ G 1 3 C 5.I ( ( H v $ 4 f a i 5 < 7 5 4 5 i A ) c a a d b K c C K ^ 1.q.2.",
"I 3.3._ +.J 5 x K Y K C d , f i < & @ 1 < 1 4 p 3 1 4 ; m 5.;.d l G 6 Z x f h z d 5 z a q f f c S S ",
"6.9.&.x b Y 0 i x f 4 1 1 S Y Z e # 4 +.=.q.Y c n M Y l B w.o.J O.Y $ H Z f f z d 1 4 1 q 8 , 3 1 3 ",
"9.9.J a d S B & 4 - + N 3.t.1.m r I 0 2.9.9.;.Y >.>.,.J 7 n Z o.I x 7 +.%.Z x z 5 , h I 3.G 4 f p 5 ",
"5.3.c f f x Y 1 5 d 1 G r.,.( 1 c J 3 Z 2.8.2.8.q.9.8.%.d i x C i & M q.8.` ` ` d A 3.5.y.J 1 S c { ",
"S C a x z f _ k 5 C z 1 ! I 6 5 x ( r a I o.o.>.,.6.1.&.0 < f 1 k q C ,.>._ I x < Y 8.t.6.l H 8.5.9.",
"h a a f a M &.h 1 ) } d @ < 4 4 z I H 1 x M c z x M C U w . 0 H o.h f c c n d o < K U K h 4 U } ;.~ ",
"1 f x a f x x % i +.1.U < A +.3 z S Y 4 3 f a z f f f x r - 5.y.%.l 4 x a , + t 5 x z i * * z M C x ",
"M 4 a x f 5 * p ^ 9.8.v V i.t.w 1 x x a , 5 x z z z f x q B ,.+.I d 3 p 1 8 w Y r 5 q v K N 4 x z 5 ",
"( m * 4 < 1 C _ 6.6.m l w.5.,.j # 4 f a <   < d f f p f 1 M S C c f 3 O v K M &.1 k ;.8.r.] @ < 1 j ",
"a c % o 5 x x x C H v o.1.I Z j @ < 1 3 v N + * 5 1 3 3 o 5 z f f x 1 l w.H d C 0 ] 5.9.5.H > m P 6.",
"p 1 4 f 5 4 a a z 5 f E Z z a 1 d x M K >.&.v y Z f z z h 8 q x x < d q.q.I q p l +.Y ( K k U p.q.6.",
"4 p C c a 5 4 5 f 3 1 x d a < f x x _ 1.6.6.] j I ^ J J ` ` d 1 0 q m 6.6.+.0 1 d x z z 5 k 5.6.=.x ",
"C ] 1.^ J C f i 0 r 3 < * # d ` a x ~ 6.t.6.o.H ] t.w.K C ) I 0 U ` q C ;.r.J % i z z x 1 G o.K i 1 ",
"2.t.t.+.^ ) W v M 6.,.J P & c Y x h _ } ,.2.` M H o.,.C i c v B &.l d K <.r.r.~ q 5 f 3 , f x 5 1 C ",
"8.8.6.U S W J d ^ t.o.K o.0 f ) x a S _ ` ` O.v 4 Z C f z f 0 C x 3 i c H E %.5.O.B 0 A m q - & f C ",
"M ,.W c z h & 5 M J x x ` ) 1 5 x z z C C C O.d o i z f f % q c x * 1 z f f x b J l P 5.o._ G % 4 p ",
"1 c c p 5 @ + 1 x a a c K U S , 1 i i f 5 5 4 4 a < 1 < # = 4 5 1 # * 5 z z z f a r I x c x f 1 d l ",
"m 0 5 d H 7 p h 2 a f f d 1 , < 1 d 7 * 1 4 d z f f a * 6 K 0 1 d q C 1 1 i i 5 < 4 x 5 5 r H 2.q.1.",
"C ( ] 6.i.P 5 S A 0 4 < * 1 a f S 1.r i z z z f x c x < H %.~ Y &.l H J i i s i 5 < 4 j A Y ;.-.Y C ",
"a S 5.r.r.{ 5 S y.2.I H d i x C +.t.r 5 c J ) U ;.%.c 5 x } 9.;.o.j P ,.Z S o.} Z 4 5 f c x a x a p ",
"5 x C Y S 0 5 +.w.1.I _ B 5 Z %.] w.P < c ,.t.t.9.2.] l f x S K H m r.,.` ;.8.6.G 0 h 1 4 4 5 4 4 r ",
"% p a x 3 O f b A c z c l 5 J >.;.I ) v d ] P ] %.~ ] d f f a x 4 +.y.O.Y ;.8.1.v q _ I C h * 4 4 d ",
"f q a 5 g P 4 x z a i 4 o i Y ` ( Z f K m 0 * 1 d M q o < i 5 < 4 +.1.S c ) +.) 0 5 x K &.H k P l j ",
"I 9.g < 2.p.M 1 4 s l z < 3 C J x f f c l 1 ` C 1 * k M q % 2 2 5 C C f f K C * . @ 1 5 d 0 Y 8.p.6.",
"x +.1.m H w.o.# w Y Y } Y q p f f f x a 3 V 1.U 7 i e.1.Y K K I 4 a f f x 5 1 e B C d 5 1 , H o.>.] ",
"d z K ) m K f v &._ 5.8.O.Y d f x x 5 0 P i.2.B j 3 d H ` ` o.>.v 4 x l 4 l _ q.t.r.,.I o.l 5 c M M ",
"q i Z ) b K b v Y O.8.8.9.&.H < 4 & # x Y %.b k Z z d 5 C Y 2.9.5.k * * O Z U %.5.2.+.` ` K 3 i p 1 ",
"s i ) m d ] O.j q S I 1.2.%.v 1 q t & f a z 5 v c f c l 4 C ;.8.w.m + < 5 1 x C K ) ` K I &.v 1 5 p ",
"< a C * 4 f b 0 * 5 x b C C 1 C K &.H 7 f x f v b f a C d f K ~ J 1 d Y _ 1 5 z f b c f b Z 1 z J J ",
"* q l l m f 3 r U q 1 f x i 4 ] ) +.%.7 q q 1 q U C z C r 1 a 1 % 1 C %.1.H & 4 x f f h z 1 1 E ;.2.",
"x U w.I c U l d x k k 0 3 & l U z ] M J &.H v 1 C Z b f 1 3 3 1 v d i Z ..` j y 1 5 f x 3 8 K 5.9.9.",
"C ,.~ C M J I q 5 J y.~ l - y U z ) v +.1.J ` j 5 z z 4 C c f I >.q p C Z z l 1.P k < % 7 ` o.5.r.5.",
"c J Y 2.t.r.%.d * J ;.&.o.` j I x I l C c f x G 0 5 % r O.J K t.;.5 f f f % d c C I I y & c K ) ;.+.",
"f f c J %.;.%.6 4 x H ` K Z q M c b 0 d f f f c q 1 * p C Z ~ 6.I 4 x z 2 4 x a a a x Z 7 r x x x b "
};
